<?xml version="1.0" encoding="UTF-8" standalone="no"?>
<!-- Created with Inkscape (http://www.inkscape.org/) -->

<svg
   xmlns:dc="http://purl.org/dc/elements/1.1/"
   xmlns:cc="http://creativecommons.org/ns#"
   xmlns:rdf="http://www.w3.org/1999/02/22-rdf-syntax-ns#"
   xmlns:svg="http://www.w3.org/2000/svg"
   xmlns="http://www.w3.org/2000/svg"
   xmlns:xlink="http://www.w3.org/1999/xlink"
   xmlns:sodipodi="http://sodipodi.sourceforge.net/DTD/sodipodi-0.dtd"
   xmlns:inkscape="http://www.inkscape.org/namespaces/inkscape"
   width="102"
   height="102"
   id="svg2"
   version="1.1"
   inkscape:version="0.48.4 r9939"
   sodipodi:docname="afficher_historique.svg"
   inkscape:export-filename="/home/hadrien/Documents/fac/M2/MGL/RealProject/Ocelot/Ocelot/images/afficher_historique_Large.png"
   inkscape:export-xdpi="42.35294"
   inkscape:export-ydpi="42.35294">
  <defs
     id="defs4">
    <linearGradient
       id="linearGradient3832">
      <stop
         style="stop-color:#ffffff;stop-opacity:1;"
         offset="0"
         id="stop3834" />
      <stop
         style="stop-color:#cccccf;stop-opacity:0;"
         offset="1"
         id="stop3836" />
    </linearGradient>
    <linearGradient
       id="linearGradient3895">
      <stop
         style="stop-color:#daf0ff;stop-opacity:1;"
         offset="0"
         id="stop3897" />
      <stop
         style="stop-color:#0197fd;stop-opacity:1;"
         offset="1"
         id="stop3899" />
    </linearGradient>
    <linearGradient
       id="linearGradient3806">
      <stop
         style="stop-color:#a7ff9b;stop-opacity:1;"
         offset="0"
         id="stop3808" />
      <stop
         style="stop-color:#19d600;stop-opacity:1;"
         offset="1"
         id="stop3810" />
    </linearGradient>
    <linearGradient
       id="linearGradient3795">
      <stop
         style="stop-color:#2b8c00;stop-opacity:1;"
         offset="0"
         id="stop3797" />
      <stop
         style="stop-color:#26ef00;stop-opacity:1;"
         offset="1"
         id="stop3799" />
    </linearGradient>
    <linearGradient
       id="linearGradient3759">
      <stop
         style="stop-color:#9feaff;stop-opacity:0.79710144;"
         offset="0"
         id="stop3761" />
      <stop
         style="stop-color:#65ff66;stop-opacity:0;"
         offset="1"
         id="stop3763" />
    </linearGradient>
    <linearGradient
       inkscape:collect="always"
       xlink:href="#linearGradient3759"
       id="linearGradient3765"
       x1="141.51515"
       y1="150.24097"
       x2="140"
       y2="275.99854"
       gradientUnits="userSpaceOnUse" />
    <linearGradient
       inkscape:collect="always"
       xlink:href="#linearGradient3759"
       id="linearGradient3822"
       x1="121.38686"
       y1="192.38612"
       x2="208.61314"
       y2="205.15985"
       gradientUnits="userSpaceOnUse" />
    <radialGradient
       inkscape:collect="always"
       xlink:href="#linearGradient3895"
       id="radialGradient3901"
       cx="144.29315"
       cy="256.05127"
       fx="144.29315"
       fy="256.05127"
       r="51"
       gradientUnits="userSpaceOnUse" />
    <linearGradient
       gradientTransform="matrix(0.14011683,0,0,0.14011683,107.7309,168.62959)"
       inkscape:collect="always"
       xlink:href="#linearGradient3784"
       id="linearGradient3790"
       x1="302.78836"
       y1="413.63141"
       x2="220.92479"
       y2="338.37506"
       gradientUnits="userSpaceOnUse" />
    <linearGradient
       id="linearGradient3784">
      <stop
         style="stop-color:#fef644;stop-opacity:1;"
         offset="0"
         id="stop3786" />
      <stop
         style="stop-color:#ffffff;stop-opacity:0;"
         offset="1"
         id="stop3788" />
    </linearGradient>
    <linearGradient
       inkscape:collect="always"
       xlink:href="#linearGradient3766"
       id="linearGradient3772"
       x1="152.7023"
       y1="276.85831"
       x2="278.07684"
       y2="352.11465"
       gradientUnits="userSpaceOnUse"
       gradientTransform="matrix(0.14011683,0,0,0.14011683,107.7309,168.55881)" />
    <linearGradient
       id="linearGradient3766">
      <stop
         style="stop-color:#ffff99;stop-opacity:1;"
         offset="0"
         id="stop3768" />
      <stop
         style="stop-color:#ffff99;stop-opacity:0;"
         offset="1"
         id="stop3770" />
    </linearGradient>
    <radialGradient
       inkscape:collect="always"
       xlink:href="#linearGradient3774"
       id="radialGradient3780"
       cx="243.4213"
       cy="418.92618"
       fx="243.4213"
       fy="418.92618"
       r="138.186"
       gradientTransform="matrix(1,0,0,0.95746655,0,14.542579)"
       gradientUnits="userSpaceOnUse" />
    <linearGradient
       id="linearGradient3774">
      <stop
         style="stop-color:#fdf201;stop-opacity:1;"
         offset="0"
         id="stop3776" />
      <stop
         style="stop-color:#fdca01;stop-opacity:1;"
         offset="1"
         id="stop3778" />
    </linearGradient>
    <radialGradient
       r="138.186"
       fy="418.92618"
       fx="243.4213"
       cy="418.92618"
       cx="243.4213"
       gradientTransform="matrix(0.14011683,0,0,0.13415718,107.7309,170.66724)"
       gradientUnits="userSpaceOnUse"
       id="radialGradient4001"
       xlink:href="#linearGradient3774"
       inkscape:collect="always" />
  </defs>
  <sodipodi:namedview
     id="base"
     pagecolor="#ffffff"
     bordercolor="#666666"
     borderopacity="1.0"
     inkscape:pageopacity="0.0"
     inkscape:pageshadow="2"
     inkscape:zoom="1.4"
     inkscape:cx="84.361046"
     inkscape:cy="21.688892"
     inkscape:document-units="px"
     inkscape:current-layer="layer1"
     showgrid="false"
     fit-margin-top="0"
     fit-margin-left="0"
     fit-margin-right="0"
     fit-margin-bottom="0"
     inkscape:window-width="1600"
     inkscape:window-height="841"
     inkscape:window-x="0"
     inkscape:window-y="27"
     inkscape:window-maximized="1">
    <inkscape:grid
       type="xygrid"
       id="grid2985"
       empspacing="5"
       visible="true"
       enabled="true"
       snapvisiblegridlinesonly="true"
       originx="-89px"
       originy="-788.98718px" />
  </sodipodi:namedview>
  <metadata
     id="metadata7">
    <rdf:RDF>
      <cc:Work
         rdf:about="">
        <dc:format>image/svg+xml</dc:format>
        <dc:type
           rdf:resource="http://purl.org/dc/dcmitype/StillImage" />
        <dc:title></dc:title>
      </cc:Work>
    </rdf:RDF>
  </metadata>
  <g
     inkscape:label="Calque 1"
     inkscape:groupmode="layer"
     id="layer1"
     transform="translate(-89,-161.375)">
    <path
       sodipodi:type="arc"
       style="fill:url(#radialGradient3901);fill-opacity:1.0;stroke:#002b3d;stroke-width:2;stroke-miterlimit:4;stroke-opacity:1;stroke-dasharray:none"
       id="path2987"
       sodipodi:cx="140"
       sodipodi:cy="212.36218"
       sodipodi:rx="50"
       sodipodi:ry="50"
       d="m 190,212.36218 c 0,27.61424 -22.38576,50 -50,50 -27.61424,0 -50,-22.38576 -50,-50 0,-27.61423 22.38576,-50 50,-50 27.54557,0 49.90278,22.2787 49.99969,49.82409"
       sodipodi:start="0"
       sodipodi:end="6.2796671"
       sodipodi:open="true"
       transform="translate(0.25253942,0.02030506)" />
    <path
       style="fill:url(#linearGradient3822);fill-opacity:1.0;stroke:none"
       d="m 190,212.36218 c -69.04405,3.39791 -92.560988,66.86152 -100,0 0,-27.61423 22.38576,-50 50,-50 27.54557,0 49.90278,22.2787 49.99969,49.82409"
       id="path3803"
       inkscape:connector-curvature="0"
       sodipodi:nodetypes="ccsc"
       transform="matrix(0.97857143,0,0,0.97857143,3,4.5506182)" />
    <path
       sodipodi:open="true"
       sodipodi:end="6.2796671"
       sodipodi:start="0"
       d="m 190,212.36218 c 0,27.61424 -22.38576,50 -50,50 -27.61424,0 -50,-22.38576 -50,-50 0,-27.61423 22.38576,-50 50,-50 27.54557,0 49.90278,22.2787 49.99969,49.82409"
       sodipodi:ry="50"
       sodipodi:rx="50"
       sodipodi:cy="212.36218"
       sodipodi:cx="140"
       id="path3814"
       style="fill:none;stroke:#b3defd;stroke-width:1;stroke-miterlimit:4;stroke-opacity:1;stroke-dasharray:none"
       sodipodi:type="arc"
       transform="matrix(0.97878359,0,0,0.97878359,2.970297,4.5055626)" />
    <rect
       style="opacity:0.98545454;fill:#002b3d;fill-opacity:1;stroke:#002b3d;stroke-width:1.54361689;stroke-opacity:1"
       id="rect3849"
       width="60.065536"
       height="57.287621"
       x="111.0104"
       y="183.86507"
       rx="2.840939" />
    <rect
       rx="3.3460174"
       y="192.95644"
       x="111.0104"
       height="48.196239"
       width="60.065529"
       id="rect3851"
       style="opacity:0.98545454;fill:#ffffff;fill-opacity:1;stroke:#002b3d;stroke-width:1.54361689;stroke-opacity:1"
       ry="3.7880645" />
    <rect
       style="opacity:0.98545454;fill:#ffffff;fill-opacity:1;stroke:#002b3d;stroke-width:0.90740389;stroke-linecap:round;stroke-linejoin:round;stroke-miterlimit:4;stroke-opacity:1;stroke-dasharray:none;stroke-dashoffset:0"
       id="rect3853"
       width="4.8908205"
       height="4.6382823"
       x="163.13901"
       y="186.59769"
       rx="2.2924795" />
    <rect
       rx="2.2924795"
       y="186.59769"
       x="157.13901"
       height="4.6382823"
       width="4.8908205"
       id="rect3855"
       style="opacity:0.98545454;fill:#ffffff;fill-opacity:1;stroke:#002b3d;stroke-width:0.90740389;stroke-linecap:round;stroke-linejoin:round;stroke-miterlimit:4;stroke-opacity:1;stroke-dasharray:none;stroke-dashoffset:0" />
    <rect
       style="opacity:0.98545454;fill:#ffffff;fill-opacity:1;stroke:#002b3d;stroke-width:0.90740389;stroke-linecap:round;stroke-linejoin:round;stroke-miterlimit:4;stroke-opacity:1;stroke-dasharray:none;stroke-dashoffset:0"
       id="rect3857"
       width="4.8908205"
       height="4.6382823"
       x="151.13901"
       y="186.59769"
       rx="2.2924795" />
    <path
       style="fill:url(#radialGradient4001);fill-opacity:1;stroke:#986601;stroke-width:0.28023365;stroke-linecap:round;stroke-linejoin:round;stroke-miterlimit:4;stroke-opacity:1;stroke-dasharray:none;stroke-dashoffset:0"
       inkscape:transform-center-y="-4.6354458"
       d="m 152.23798,234.48586 c -3.56964,2.46004 -6.84667,-6.536 -11.18054,-6.64397 -4.67879,-0.11655 -8.69582,9.40727 -12.41253,6.56285 -3.44271,-2.63473 4.10037,-8.53131 2.8638,-12.68642 -1.33497,-4.48582 -11.63399,-5.36322 -10.07732,-9.77699 1.44192,-4.08839 9.38084,1.26337 12.95047,-1.19668 3.85374,-2.65583 1.50562,-12.7219 6.1844,-12.60535 4.33388,0.10795 1.69732,9.3121 5.14004,11.94683 3.71671,2.84442 12.5645,-2.49936 13.89948,1.98645 1.23656,4.15511 -8.33184,4.49183 -9.77376,8.58023 -1.55667,4.41377 6.25969,11.17722 2.40596,13.83305 z"
       id="path2985"
       inkscape:connector-curvature="0"
       sodipodi:nodetypes="ssssaasssss" />
    <path
       sodipodi:nodetypes="ssssaasssss"
       inkscape:connector-curvature="0"
       id="path3756"
       d="m 152.02178,234.17 c -3.50392,2.41476 -6.72063,-6.41568 -10.97472,-6.52166 -4.59266,-0.1144 -8.53574,9.2341 -12.18403,6.44204 -3.37935,-2.58623 4.02489,-8.37426 2.81109,-12.45288 -1.31041,-4.40324 -11.41983,-5.26449 -9.89182,-9.59701 1.41538,-4.01313 9.20815,1.24011 12.71208,-1.17465 3.78278,-2.60694 1.47789,-12.48771 6.07055,-12.37331 4.25409,0.10597 1.66607,9.14069 5.04541,11.72691 3.64829,2.79205 12.33322,-2.45335 13.64362,1.94988 1.2138,4.07863 -8.17847,4.40914 -9.59384,8.42228 -1.52801,4.33252 6.14445,10.97146 2.36166,13.5784 z"
       inkscape:transform-center-y="-4.5501148"
       style="fill:url(#linearGradient3772);fill-opacity:1;stroke:none" />
    <path
       sodipodi:nodetypes="ssssaasssss"
       inkscape:connector-curvature="0"
       id="path3782"
       d="m 150.29819,231.62157 c -2.91551,2.00925 -5.94589,-5.69215 -9.48559,-5.78033 -3.82142,-0.0952 -6.96081,8.46188 -9.99644,6.13869 -2.81185,-2.15192 3.34899,-6.96797 2.33902,-10.36168 -1.09034,-3.66379 -9.5021,-4.38042 -8.23069,-7.98538 1.17769,-3.33921 7.66183,1.03185 10.57735,-0.9774 3.14754,-2.16916 1.22971,-10.39066 5.05113,-10.29547 3.5397,0.0882 1.38628,6.54416 4.19813,8.69608 3.03564,2.32319 10.26212,-1.61675 11.35246,2.04705 1.00997,3.39371 -6.80506,4.30566 -7.98275,7.64487 -1.27142,3.60497 5.32493,8.70441 2.17738,10.87357 z"
       inkscape:transform-center-y="-3.7860252"
       style="fill:none;stroke:url(#linearGradient3790);stroke-width:0.22888188;stroke-linecap:round;stroke-linejoin:round;stroke-miterlimit:4;stroke-opacity:1;stroke-dasharray:none;stroke-dashoffset:0" />
  </g>
</svg>
