<?xml version="1.0" encoding="UTF-8" standalone="no"?>
<!-- Created with Inkscape (http://www.inkscape.org/) -->

<svg
   xmlns:dc="http://purl.org/dc/elements/1.1/"
   xmlns:cc="http://creativecommons.org/ns#"
   xmlns:rdf="http://www.w3.org/1999/02/22-rdf-syntax-ns#"
   xmlns:svg="http://www.w3.org/2000/svg"
   xmlns="http://www.w3.org/2000/svg"
   xmlns:xlink="http://www.w3.org/1999/xlink"
   xmlns:sodipodi="http://sodipodi.sourceforge.net/DTD/sodipodi-0.dtd"
   xmlns:inkscape="http://www.inkscape.org/namespaces/inkscape"
   width="276.37201"
   height="264.61694"
   id="svg2"
   version="1.1"
   inkscape:version="0.48.3.1 r9886"
   sodipodi:docname="favoris.svg"
   inkscape:export-filename="/home/hadrien/Documents/fac/M2/MGL/RealProject/Ocelot/Ocelot/images/favoris_Large.png"
   inkscape:export-xdpi="15.633769"
   inkscape:export-ydpi="15.633769">
  <defs
     id="defs4">
    <linearGradient
       id="linearGradient3818">
      <stop
         style="stop-color:#5cff0b;stop-opacity:1;"
         offset="0"
         id="stop3820" />
      <stop
         style="stop-color:#339900;stop-opacity:1;"
         offset="1"
         id="stop3822" />
    </linearGradient>
    <linearGradient
       id="linearGradient3784">
      <stop
         style="stop-color:#fef644;stop-opacity:1;"
         offset="0"
         id="stop3786" />
      <stop
         style="stop-color:#ffffff;stop-opacity:0;"
         offset="1"
         id="stop3788" />
    </linearGradient>
    <linearGradient
       id="linearGradient3774">
      <stop
         style="stop-color:#fdf201;stop-opacity:1;"
         offset="0"
         id="stop3776" />
      <stop
         style="stop-color:#fdca01;stop-opacity:1;"
         offset="1"
         id="stop3778" />
    </linearGradient>
    <linearGradient
       id="linearGradient3766">
      <stop
         style="stop-color:#ffff99;stop-opacity:1;"
         offset="0"
         id="stop3768" />
      <stop
         style="stop-color:#ffff99;stop-opacity:0;"
         offset="1"
         id="stop3770" />
    </linearGradient>
    <linearGradient
       inkscape:collect="always"
       xlink:href="#linearGradient3766"
       id="linearGradient3772"
       x1="152.7023"
       y1="276.85831"
       x2="278.07684"
       y2="352.11465"
       gradientUnits="userSpaceOnUse"
       gradientTransform="translate(0,-0.50507623)" />
    <radialGradient
       inkscape:collect="always"
       xlink:href="#linearGradient3774"
       id="radialGradient3780"
       cx="243.4213"
       cy="418.92618"
       fx="243.4213"
       fy="418.92618"
       r="138.186"
       gradientTransform="matrix(1,0,0,0.95746655,0,14.542579)"
       gradientUnits="userSpaceOnUse" />
    <linearGradient
       inkscape:collect="always"
       xlink:href="#linearGradient3784"
       id="linearGradient3790"
       x1="302.78836"
       y1="413.63141"
       x2="220.92479"
       y2="338.37506"
       gradientUnits="userSpaceOnUse" />
    <radialGradient
       inkscape:collect="always"
       xlink:href="#linearGradient3818"
       id="radialGradient3824"
       cx="337.3161"
       cy="442.15146"
       fx="337.3161"
       fy="442.15146"
       r="42.671875"
       gradientUnits="userSpaceOnUse"
       gradientTransform="matrix(1.3190988,-0.78485349,0.87178955,1.4652117,-493.1002,59.049668)" />
  </defs>
  <sodipodi:namedview
     id="base"
     pagecolor="#ffffff"
     bordercolor="#666666"
     borderopacity="1.0"
     inkscape:pageopacity="0.0"
     inkscape:pageshadow="2"
     inkscape:zoom="1.979899"
     inkscape:cx="143.42353"
     inkscape:cy="147.52029"
     inkscape:document-units="px"
     inkscape:current-layer="layer1"
     showgrid="false"
     fit-margin-top="0"
     fit-margin-left="0"
     fit-margin-right="0"
     fit-margin-bottom="0"
     inkscape:window-width="1600"
     inkscape:window-height="841"
     inkscape:window-x="0"
     inkscape:window-y="27"
     inkscape:window-maximized="1" />
  <metadata
     id="metadata7">
    <rdf:RDF>
      <cc:Work
         rdf:about="">
        <dc:format>image/svg+xml</dc:format>
        <dc:type
           rdf:resource="http://purl.org/dc/dcmitype/StillImage" />
        <dc:title></dc:title>
      </cc:Work>
    </rdf:RDF>
  </metadata>
  <g
     inkscape:label="Calque 1"
     inkscape:groupmode="layer"
     id="layer1"
     transform="translate(-95.638839,-209.60076)">
    <path
       style="fill:url(#radialGradient3780);fill-opacity:1;stroke:#986601;stroke-width:2;stroke-linecap:round;stroke-linejoin:round;stroke-miterlimit:4;stroke-opacity:1;stroke-dasharray:none;stroke-dashoffset:0"
       inkscape:transform-center-y="-33.082737"
       d="m 317.64262,470.00973 c -25.47611,17.55709 -48.86402,-46.6468 -79.79442,-47.4173 -33.39205,-0.83182 -62.06119,67.13871 -88.587,46.83839 -24.57033,-18.80378 29.26393,-60.8871 20.4387,-90.54175 -9.5276,-32.01478 -83.030664,-38.27671 -71.920841,-69.77739 10.290811,-29.17846 66.950121,9.01651 92.426231,-8.54058 27.50367,-18.9544 10.74542,-90.795 44.13747,-89.96318 30.9304,0.7705 12.11352,66.4596 36.68385,85.26338 26.52581,20.30031 89.6717,-17.8377 99.1993,14.17708 8.82523,29.65465 -59.46355,32.05779 -69.75436,61.23625 -11.10982,31.50068 44.67474,79.7707 17.17107,98.7251 z"
       id="path2985"
       inkscape:connector-curvature="0"
       sodipodi:nodetypes="ssssaasssss" />
    <path
       sodipodi:nodetypes="ssssaasssss"
       inkscape:connector-curvature="0"
       id="path3756"
       d="m 316.09966,467.75552 c -25.00713,17.23389 -47.9645,-45.7881 -78.32552,-46.54442 -32.77736,-0.81651 -60.91874,65.90279 -86.95625,45.97617 -24.11803,-18.45763 28.72522,-59.76627 20.06245,-88.87502 -9.35221,-31.42544 -81.502198,-37.57209 -70.59689,-68.4929 10.10137,-28.64133 65.71767,8.85053 90.72481,-8.38336 26.99737,-18.60548 10.54761,-89.1236 43.32497,-88.30709 30.36102,0.75631 11.89052,65.23618 36.00855,83.69381 26.03751,19.92661 88.02099,-17.50934 97.3732,13.9161 8.66277,29.10875 -58.36892,31.46766 -68.47029,60.10899 -10.90531,30.9208 43.85234,78.30224 16.85497,96.90772 z"
       inkscape:transform-center-y="-32.473732"
       style="fill:url(#linearGradient3772);fill-opacity:1;stroke:none" />
    <path
       sodipodi:nodetypes="ssssaasssss"
       inkscape:connector-curvature="0"
       id="path3782"
       d="m 303.79855,449.56762 c -20.8077,14.33982 -42.43525,-40.62433 -67.69777,-41.25364 -27.27308,-0.67939 -49.67855,60.39163 -71.34361,43.81127 -20.06791,-15.35805 23.90143,-49.72976 16.69339,-73.95031 -7.78171,-26.14819 -67.81561,-31.26265 -58.74162,-56.99094 8.40506,-23.83162 54.68176,7.36426 75.48947,-6.97555 22.46372,-15.48108 8.77636,-74.15716 36.04944,-73.47777 25.26252,0.62931 9.89377,46.70499 29.96167,62.06305 21.66506,16.58035 73.2397,-11.53856 81.0214,14.60963 7.20804,24.22055 -48.56707,30.72901 -56.97213,54.56063 -9.07399,25.72829 38.00349,62.12255 15.53976,77.60363 z"
       inkscape:transform-center-y="-27.020452"
       style="fill:none;stroke:url(#linearGradient3790);stroke-width:1.63350749;stroke-linecap:round;stroke-linejoin:round;stroke-miterlimit:4;stroke-opacity:1;stroke-dasharray:none;stroke-dashoffset:0" />
    <path
       style="fill:url(#radialGradient3824);stroke:#015a01;stroke-width:2;stroke-linecap:round;stroke-linejoin:round;stroke-miterlimit:4;stroke-opacity:1;stroke-dasharray:none;stroke-dashoffset:0;fill-opacity:1"
       d="m 317.20911,367.64962 c -1.58973,0 -2.875,1.28527 -2.875,2.875 l 0,24.90625 -24.90625,0 c -1.58973,0 -2.875,1.28527 -2.875,2.875 l 0,22.03125 c 0,1.58973 1.28527,2.875 2.875,2.875 l 24.90625,0 0,24.90625 c 0,1.58973 1.28527,2.875 2.875,2.875 l 22.03125,0 c 1.58973,0 2.875,-1.28527 2.875,-2.875 l 0,-24.90625 24.90625,0 c 1.58973,0 2.875,-1.28527 2.875,-2.875 l 0,-22.03125 c 0,-1.58973 -1.28527,-2.875 -2.875,-2.875 l -24.90625,0 0,-24.90625 c 0,-1.58973 -1.28527,-2.875 -2.875,-2.875 l -22.03125,0 z"
       id="rect3811"
       inkscape:connector-curvature="0" />
  </g>
</svg>
