<?xml version="1.0" encoding="UTF-8" standalone="no"?>
<!-- Created with Inkscape (http://www.inkscape.org/) -->

<svg
   xmlns:dc="http://purl.org/dc/elements/1.1/"
   xmlns:cc="http://creativecommons.org/ns#"
   xmlns:rdf="http://www.w3.org/1999/02/22-rdf-syntax-ns#"
   xmlns:svg="http://www.w3.org/2000/svg"
   xmlns="http://www.w3.org/2000/svg"
   xmlns:xlink="http://www.w3.org/1999/xlink"
   xmlns:sodipodi="http://sodipodi.sourceforge.net/DTD/sodipodi-0.dtd"
   xmlns:inkscape="http://www.inkscape.org/namespaces/inkscape"
   width="102"
   height="102"
   id="svg2"
   version="1.1"
   inkscape:version="0.48.4 r9939"
   sodipodi:docname="nouvelle_fenetre.svg"
   inkscape:export-filename="/home/hadrien/Documents/fac/M2/MGL/RealProject/Ocelot/Ocelot/images/precedent_Large.png"
   inkscape:export-xdpi="42.35294"
   inkscape:export-ydpi="42.35294">
  <defs
     id="defs4">
    <linearGradient
       id="linearGradient3895">
      <stop
         style="stop-color:#daf0ff;stop-opacity:1;"
         offset="0"
         id="stop3897" />
      <stop
         style="stop-color:#0197fd;stop-opacity:1;"
         offset="1"
         id="stop3899" />
    </linearGradient>
    <linearGradient
       id="linearGradient3806">
      <stop
         style="stop-color:#a7ff9b;stop-opacity:1;"
         offset="0"
         id="stop3808" />
      <stop
         style="stop-color:#19d600;stop-opacity:1;"
         offset="1"
         id="stop3810" />
    </linearGradient>
    <linearGradient
       id="linearGradient3795">
      <stop
         style="stop-color:#2b8c00;stop-opacity:1;"
         offset="0"
         id="stop3797" />
      <stop
         style="stop-color:#26ef00;stop-opacity:1;"
         offset="1"
         id="stop3799" />
    </linearGradient>
    <linearGradient
       id="linearGradient3759">
      <stop
         style="stop-color:#9feaff;stop-opacity:0.79710144;"
         offset="0"
         id="stop3761" />
      <stop
         style="stop-color:#65ff66;stop-opacity:0;"
         offset="1"
         id="stop3763" />
    </linearGradient>
    <linearGradient
       inkscape:collect="always"
       xlink:href="#linearGradient3759"
       id="linearGradient3765"
       x1="141.51515"
       y1="150.24097"
       x2="140"
       y2="275.99854"
       gradientUnits="userSpaceOnUse" />
    <linearGradient
       inkscape:collect="always"
       xlink:href="#linearGradient3759"
       id="linearGradient3822"
       x1="121.38686"
       y1="192.38612"
       x2="208.61314"
       y2="205.15985"
       gradientUnits="userSpaceOnUse" />
    <radialGradient
       inkscape:collect="always"
       xlink:href="#linearGradient3895"
       id="radialGradient3901"
       cx="144.29315"
       cy="256.05127"
       fx="144.29315"
       fy="256.05127"
       r="51"
       gradientUnits="userSpaceOnUse" />
  </defs>
  <sodipodi:namedview
     id="base"
     pagecolor="#ffffff"
     bordercolor="#666666"
     borderopacity="1.0"
     inkscape:pageopacity="0.0"
     inkscape:pageshadow="2"
     inkscape:zoom="3.959798"
     inkscape:cx="129.18656"
     inkscape:cy="21.688892"
     inkscape:document-units="px"
     inkscape:current-layer="layer1"
     showgrid="false"
     fit-margin-top="0"
     fit-margin-left="0"
     fit-margin-right="0"
     fit-margin-bottom="0"
     inkscape:window-width="1600"
     inkscape:window-height="841"
     inkscape:window-x="0"
     inkscape:window-y="27"
     inkscape:window-maximized="1">
    <inkscape:grid
       type="xygrid"
       id="grid2985"
       empspacing="5"
       visible="true"
       enabled="true"
       snapvisiblegridlinesonly="true"
       originx="-89px"
       originy="-788.98718px" />
  </sodipodi:namedview>
  <metadata
     id="metadata7">
    <rdf:RDF>
      <cc:Work
         rdf:about="">
        <dc:format>image/svg+xml</dc:format>
        <dc:type
           rdf:resource="http://purl.org/dc/dcmitype/StillImage" />
        <dc:title></dc:title>
      </cc:Work>
    </rdf:RDF>
  </metadata>
  <g
     inkscape:label="Calque 1"
     inkscape:groupmode="layer"
     id="layer1"
     transform="translate(-89,-161.375)">
    <path
       sodipodi:type="arc"
       style="fill:url(#radialGradient3901);fill-opacity:1;stroke:#002b3d;stroke-width:2;stroke-miterlimit:4;stroke-opacity:1;stroke-dasharray:none"
       id="path2987"
       sodipodi:cx="140"
       sodipodi:cy="212.36218"
       sodipodi:rx="50"
       sodipodi:ry="50"
       d="m 190,212.36218 c 0,27.61424 -22.38576,50 -50,50 -27.61424,0 -50,-22.38576 -50,-50 0,-27.61423 22.38576,-50 50,-50 27.54557,0 49.90278,22.2787 49.99969,49.82409"
       sodipodi:start="0"
       sodipodi:end="6.2796671"
       sodipodi:open="true"
       transform="translate(0.25253942,0.02030506)" />
    <path
       style="fill:url(#linearGradient3822);fill-opacity:1.0;stroke:none"
       d="m 190,212.36218 c -69.04405,3.39791 -92.560988,66.86152 -100,0 0,-27.61423 22.38576,-50 50,-50 27.54557,0 49.90278,22.2787 49.99969,49.82409"
       id="path3803"
       inkscape:connector-curvature="0"
       sodipodi:nodetypes="ccsc"
       transform="matrix(0.97857143,0,0,0.97857143,3,4.5506182)" />
    <path
       sodipodi:open="true"
       sodipodi:end="6.2796671"
       sodipodi:start="0"
       d="m 190,212.36218 c 0,27.61424 -22.38576,50 -50,50 -27.61424,0 -50,-22.38576 -50,-50 0,-27.61423 22.38576,-50 50,-50 27.54557,0 49.90278,22.2787 49.99969,49.82409"
       sodipodi:ry="50"
       sodipodi:rx="50"
       sodipodi:cy="212.36218"
       sodipodi:cx="140"
       id="path3814"
       style="fill:none;stroke:#b3defd;stroke-width:1;stroke-miterlimit:4;stroke-opacity:1;stroke-dasharray:none"
       sodipodi:type="arc"
       transform="matrix(0.97878359,0,0,0.97878359,2.970297,4.5055626)" />
    <path
       style="opacity:0.98545453999999999;fill:#ffffff;fill-opacity:1;stroke:#002b3d;stroke-width:1;stroke-linecap:round;stroke-linejoin:round;stroke-miterlimit:4;stroke-opacity:1;stroke-dasharray:none;stroke-dashoffset:0"
       d="M 28.03125 19.15625 C 25.792752 19.15625 24 21.06056 24 23.40625 L 24 77.5625 C 24 79.90819 25.792752 81.8125 28.03125 81.8125 L 75.75 81.8125 C 77.988498 81.8125 79.8125 79.90819 79.8125 77.5625 L 79.8125 35.9375 L 64.53125 19.15625 L 28.03125 19.15625 z "
       transform="translate(89,161.375)"
       id="rect3004" />
    <rect
       style="opacity:0.98545454000000021;fill:#cccccf;fill-opacity:1;stroke:none;stroke-width:1;stroke-linecap:round;stroke-linejoin:round;stroke-miterlimit:4;stroke-opacity:1;stroke-dasharray:none;stroke-dashoffset:0"
       id="rect3784"
       width="34.345188"
       height="6.8185296"
       x="30.304577"
       y="28.763941"
       transform="translate(89,161.375)"
       rx="1.767768"
       ry="2.4663315" />
    <rect
       ry="2.4663315"
       rx="1.767768"
       y="200.13895"
       x="119.30458"
       height="6.8185296"
       width="34.345188"
       id="rect3786"
       style="opacity:0.98545454;fill:#cccccf;fill-opacity:1;stroke:none" />
    <rect
       style="opacity:0.98545454;fill:#cccccf;fill-opacity:1;stroke:none"
       id="rect3788"
       width="34.345188"
       height="6.8185296"
       x="119.30458"
       y="210.13895"
       rx="1.767768"
       ry="2.4663315" />
    <rect
       ry="2.4663315"
       rx="1.767768"
       y="220.13895"
       x="119.30458"
       height="6.8185296"
       width="34.345188"
       id="rect3790"
       style="opacity:0.98545454;fill:#cccccf;fill-opacity:1;stroke:none" />
    <rect
       style="opacity:0.98545454;fill:#cccccf;fill-opacity:1;stroke:none"
       id="rect3792"
       width="34.345188"
       height="6.8185296"
       x="119.30458"
       y="230.13895"
       rx="1.767768"
       ry="2.4663315" />
    <path
       style="opacity:0.98545454;fill:#fb8b00;fill-opacity:1;stroke:#fd3301;stroke-width:0.54867148;stroke-linecap:round;stroke-linejoin:round;stroke-miterlimit:4;stroke-opacity:1;stroke-dasharray:none;stroke-dashoffset:0"
       d="m 160.58098,214.66615 c -1.28702,0 -2.31471,0.98363 -2.31471,2.21183 l 0,5.40098 -5.40099,0 c -1.2282,0 -2.22897,1.04484 -2.22897,2.33186 l 0,2.28041 c 0,1.28702 1.00077,2.31471 2.22897,2.31471 l 5.40099,0 0,5.41813 c 0,1.2282 1.02769,2.21183 2.31471,2.21183 l 2.28041,0 c 1.28702,0 2.33186,-0.98363 2.33186,-2.21183 l 0,-5.41813 5.40098,0 c 1.2282,0 2.21183,-1.02769 2.21183,-2.31471 l 0,-2.28041 c 0,-1.28702 -0.98363,-2.33186 -2.21183,-2.33186 l -5.40098,0 0,-5.40098 c 0,-1.2282 -1.04484,-2.21183 -2.33186,-2.21183 l -2.28041,0 z"
       id="rect3777"
       inkscape:connector-curvature="0" />
  </g>
</svg>
