<?xml version="1.0" encoding="UTF-8" standalone="no"?>
<!-- Created with Inkscape (http://www.inkscape.org/) -->

<svg
   xmlns:dc="http://purl.org/dc/elements/1.1/"
   xmlns:cc="http://creativecommons.org/ns#"
   xmlns:rdf="http://www.w3.org/1999/02/22-rdf-syntax-ns#"
   xmlns:svg="http://www.w3.org/2000/svg"
   xmlns="http://www.w3.org/2000/svg"
   xmlns:xlink="http://www.w3.org/1999/xlink"
   xmlns:sodipodi="http://sodipodi.sourceforge.net/DTD/sodipodi-0.dtd"
   xmlns:inkscape="http://www.inkscape.org/namespaces/inkscape"
   width="102"
   height="102"
   id="svg2"
   version="1.1"
   inkscape:version="0.48.3.1 r9886"
   sodipodi:docname="page_precedente.svg"
   inkscape:export-filename="/home/hadrien/Documents/fac/M2/MGL/RealProject/Ocelot/Ocelot/images/precedent_Large.png"
   inkscape:export-xdpi="42.35294"
   inkscape:export-ydpi="42.35294">
  <defs
     id="defs4">
    <linearGradient
       id="linearGradient3895">
      <stop
         style="stop-color:#daf0ff;stop-opacity:1;"
         offset="0"
         id="stop3897" />
      <stop
         style="stop-color:#0197fd;stop-opacity:1;"
         offset="1"
         id="stop3899" />
    </linearGradient>
    <linearGradient
       id="linearGradient3806">
      <stop
         style="stop-color:#a7ff9b;stop-opacity:1;"
         offset="0"
         id="stop3808" />
      <stop
         style="stop-color:#19d600;stop-opacity:1;"
         offset="1"
         id="stop3810" />
    </linearGradient>
    <linearGradient
       id="linearGradient3795">
      <stop
         style="stop-color:#2b8c00;stop-opacity:1;"
         offset="0"
         id="stop3797" />
      <stop
         style="stop-color:#26ef00;stop-opacity:1;"
         offset="1"
         id="stop3799" />
    </linearGradient>
    <linearGradient
       id="linearGradient3759">
      <stop
         style="stop-color:#9feaff;stop-opacity:0.79710144;"
         offset="0"
         id="stop3761" />
      <stop
         style="stop-color:#65ff66;stop-opacity:0;"
         offset="1"
         id="stop3763" />
    </linearGradient>
    <linearGradient
       inkscape:collect="always"
       xlink:href="#linearGradient3759"
       id="linearGradient3765"
       x1="141.51515"
       y1="150.24097"
       x2="140"
       y2="275.99854"
       gradientUnits="userSpaceOnUse" />
    <linearGradient
       inkscape:collect="always"
       xlink:href="#linearGradient3759"
       id="linearGradient3822"
       x1="121.38686"
       y1="192.38612"
       x2="208.61314"
       y2="205.15985"
       gradientUnits="userSpaceOnUse" />
    <radialGradient
       inkscape:collect="always"
       xlink:href="#linearGradient3895"
       id="radialGradient3901"
       cx="144.29315"
       cy="256.05127"
       fx="144.29315"
       fy="256.05127"
       r="51"
       gradientUnits="userSpaceOnUse" />
  </defs>
  <sodipodi:namedview
     id="base"
     pagecolor="#ffffff"
     bordercolor="#666666"
     borderopacity="1.0"
     inkscape:pageopacity="0.0"
     inkscape:pageshadow="2"
     inkscape:zoom="3.959798"
     inkscape:cx="170.36804"
     inkscape:cy="23.709197"
     inkscape:document-units="px"
     inkscape:current-layer="layer1"
     showgrid="false"
     fit-margin-top="0"
     fit-margin-left="0"
     fit-margin-right="0"
     fit-margin-bottom="0"
     inkscape:window-width="1600"
     inkscape:window-height="841"
     inkscape:window-x="0"
     inkscape:window-y="27"
     inkscape:window-maximized="1">
    <inkscape:grid
       type="xygrid"
       id="grid2985"
       empspacing="5"
       visible="true"
       enabled="true"
       snapvisiblegridlinesonly="true"
       originx="-89px"
       originy="-788.98718px" />
  </sodipodi:namedview>
  <metadata
     id="metadata7">
    <rdf:RDF>
      <cc:Work
         rdf:about="">
        <dc:format>image/svg+xml</dc:format>
        <dc:type
           rdf:resource="http://purl.org/dc/dcmitype/StillImage" />
        <dc:title></dc:title>
      </cc:Work>
    </rdf:RDF>
  </metadata>
  <g
     inkscape:label="Calque 1"
     inkscape:groupmode="layer"
     id="layer1"
     transform="translate(-89,-161.375)">
    <path
       sodipodi:type="arc"
       style="fill:url(#radialGradient3901);fill-opacity:1;stroke:#002b3d;stroke-width:2;stroke-miterlimit:4;stroke-opacity:1;stroke-dasharray:none"
       id="path2987"
       sodipodi:cx="140"
       sodipodi:cy="212.36218"
       sodipodi:rx="50"
       sodipodi:ry="50"
       d="m 190,212.36218 a 50,50 0 1 1 -3.1e-4,-0.17591"
       sodipodi:start="0"
       sodipodi:end="6.2796671"
       sodipodi:open="true"
       transform="translate(0.25253942,0.02030506)" />
    <path
       style="fill:url(#linearGradient3822);fill-opacity:1.0;stroke:none"
       d="m 190,212.36218 c -69.04405,3.39791 -92.560988,66.86152 -100,0 0,-27.61423 22.38576,-50 50,-50 27.54557,0 49.90278,22.2787 49.99969,49.82409"
       id="path3803"
       inkscape:connector-curvature="0"
       sodipodi:nodetypes="ccsc"
       transform="matrix(0.97857143,0,0,0.97857143,3,4.5506182)" />
    <path
       sodipodi:open="true"
       sodipodi:end="6.2796671"
       sodipodi:start="0"
       d="m 190,212.36218 c 0,27.61424 -22.38576,50 -50,50 -27.61424,0 -50,-22.38576 -50,-50 0,-27.61423 22.38576,-50 50,-50 27.54557,0 49.90278,22.2787 49.99969,49.82409"
       sodipodi:ry="50"
       sodipodi:rx="50"
       sodipodi:cy="212.36218"
       sodipodi:cx="140"
       id="path3814"
       style="fill:none;stroke:#b3defd;stroke-width:1;stroke-miterlimit:4;stroke-opacity:1;stroke-dasharray:none"
       sodipodi:type="arc"
       transform="matrix(0.97878359,0,0,0.97878359,2.970297,4.5055626)" />
    <path
       inkscape:connector-curvature="0"
       id="path3886"
       d="m 42.91204,200.46255 c -0.005,-0.58565 0.21428,-1.17941 0.65872,-1.63248 3.62402,1.30097 6.32106,2.21001 8.53475,2.80673 l 0,-34.84063 c 0,-1.26933 1.02187,-2.2912 2.2912,-2.2912 l 6.8736,0 c 1.26933,0 2.29121,1.02187 2.29121,2.2912 l 0,34.64015 c 2.24897,-0.71631 5.00647,-1.72162 9.16482,-2.87833 0.90614,0.88887 0.91751,2.33019 0.0286,3.23633 l -12.8307,13.08849 c -0.88888,0.90615 -2.3302,0.91752 -3.23633,0.0286 l -13.0885,-12.83074 c -0.45308,-0.44444 -0.68174,-1.03251 -0.68737,-1.61817 z"
       style="fill:#ffffff;fill-opacity:1;stroke:#0d5000;stroke-width:0.60443538;stroke-opacity:1" />
    <path
       style="fill:#ffffff;fill-opacity:1;stroke:#003366;stroke-width:0.60443537999999997;stroke-opacity:1"
       d="m 162.54361,200.34074 c -0.58471,-0.005 -1.17193,0.21179 -1.625,0.65625 l -8.26428,14.83347 c -0.30889,0.55443 -0.68187,1.00809 -0.6875,1.59375 -0.005,0.58565 0.21181,1.20318 0.65625,1.65625 3.62402,-1.30097 6.28631,-3.95296 8.5,-4.54968 1.66487,24.91421 0.16192,15.77464 -30.21875,14.5625 -1.81318,0 -3.28125,1.43682 -3.28125,3.25 l 0,4.53125 c 0,1.81318 1.46807,3.28125 3.28125,3.28125 l 30.21875,0 c 20.85532,-1.41428 -1.92762,-31.81946 17.93321,-27.09896 0.90614,-0.88887 0.92016,-2.31261 0.0312,-3.21875 l -14.95013,-8.80983 c -0.44444,-0.45307 -1.00904,-0.6825 -1.59375,-0.6875 z"
       id="path3888"
       inkscape:connector-curvature="0"
       sodipodi:nodetypes="scsccccsssccccs" />
    <path
       sodipodi:nodetypes="scsccccsssccccs"
       inkscape:connector-curvature="0"
       id="path3893"
       d="m 118.8132,227.27626 c 0.58471,0.005 1.17193,-0.21179 1.625,-0.65625 l 8.26428,-14.83347 c 0.30889,-0.55443 0.68187,-1.00809 0.6875,-1.59375 0.005,-0.58565 -0.21181,-1.20318 -0.65625,-1.65625 -3.62402,1.30097 -6.28631,3.95296 -8.5,4.54968 -1.66487,-24.91421 -0.16192,-15.77464 30.21875,-14.5625 1.81318,0 3.28125,-1.43682 3.28125,-3.25 l 0,-4.53125 c 0,-1.81318 -1.46807,-3.28125 -3.28125,-3.28125 l -30.21875,0 c -20.855319,1.41428 1.92762,31.81946 -17.93321,27.09896 -0.90614,0.88887 -0.92016,2.31261 -0.0312,3.21875 l 14.95013,8.80983 c 0.44444,0.45307 1.00904,0.6825 1.59375,0.6875 z"
       style="fill:#ffffff;fill-opacity:1;stroke:#003366;stroke-width:0.60443537999999997;stroke-opacity:1" />
  </g>
</svg>
